<?xml version="1.0" standalone="no"?>
<!DOCTYPE svg PUBLIC "-//W3C//DTD SVG 20010904//EN"
 "http://www.w3.org/TR/2001/REC-SVG-20010904/DTD/svg10.dtd">
<svg version="1.0" xmlns="http://www.w3.org/2000/svg"
 width="700.000000pt" height="700.000000pt" viewBox="0 0 700.000000 700.000000"
 preserveAspectRatio="xMidYMid meet">
<metadata>
Created by potrace 1.14, written by Peter Selinger 2001-2017
</metadata>
<g transform="translate(0.000000,700.000000) scale(0.100000,-0.100000)"
fill="#000000" stroke="none">
<path d="M63 6990 c-13 -5 -32 -24 -43 -42 -20 -32 -20 -49 -19 -833 1 -867
-1 -845 56 -963 35 -72 130 -168 208 -211 71 -40 120 -89 149 -151 l21 -45 1
-2225 c1 -2136 2 -2228 19 -2285 76 -239 372 -312 546 -133 37 39 66 88 85
148 4 14 8 1031 9 2260 l1 2235 21 46 c26 58 85 117 149 149 67 34 175 144
208 212 57 117 56 95 56 970 l0 806 -26 31 c-50 60 -150 48 -179 -22 -7 -17
-50 -169 -95 -337 -141 -526 -149 -554 -163 -600 l-13 -45 -8 50 c-4 28 -16
93 -26 145 -27 134 -68 349 -75 387 -23 133 -77 392 -86 408 -22 44 -90 65
-140 45 -32 -14 -64 -73 -73 -135 -3 -22 -12 -71 -20 -110 -8 -38 -17 -90 -21
-115 -4 -24 -8 -47 -10 -50 -2 -3 -6 -25 -10 -50 -4 -25 -8 -47 -10 -50 -2 -3
-6 -23 -9 -45 -5 -31 -63 -336 -81 -425 -2 -8 -4 -21 -4 -29 -2 -41 -16 5
-171 584 -99 370 -104 386 -129 409 -21 19 -89 29 -118 16z m722 -776 c8 -43
24 -128 35 -189 12 -60 35 -180 51 -265 63 -324 67 -341 90 -366 43 -46 132
-40 165 11 12 18 55 157 69 225 4 16 65 242 95 350 l19 65 1 -60 c1 -33 1
-190 1 -350 0 -325 -5 -356 -65 -429 -19 -24 -68 -63 -108 -86 -123 -74 -196
-162 -239 -290 l-22 -65 -1 -2235 c-2 -2102 -3 -2237 -19 -2261 -21 -31 -57
-49 -98 -49 -41 0 -99 56 -100 96 -1 16 -2 1026 -3 2244 -3 2206 -3 2215 -23
2271 -50 134 -104 201 -234 285 -104 67 -148 117 -169 194 -6 20 -10 184 -9
385 0 397 -7 390 79 65 90 -339 97 -358 133 -380 46 -28 90 -26 128 8 32 29
44 76 113 447 15 84 20 109 30 153 2 9 7 37 12 62 4 25 8 47 9 50 1 3 5 28 10
55 5 28 10 52 10 55 1 3 5 24 10 48 4 23 9 41 12 39 2 -2 10 -40 18 -83z"/>
<path d="M6795 6986 c-99 -31 -182 -99 -225 -185 -26 -52 -28 -60 -46 -181 -8
-52 -16 -111 -19 -130 -10 -62 -13 -84 -19 -131 -4 -25 -9 -57 -11 -70 -2 -13
-6 -46 -10 -74 -3 -27 -10 -75 -15 -105 -5 -30 -12 -77 -15 -105 -3 -27 -8
-61 -10 -75 -3 -14 -7 -41 -10 -60 -3 -19 -25 -178 -50 -353 -51 -362 -53
-375 -59 -419 -3 -18 -12 -82 -21 -143 -9 -60 -18 -126 -21 -145 -4 -35 -96
-680 -109 -765 -31 -209 -33 -234 -18 -263 8 -15 57 -71 111 -124 l96 -97 1
-1653 0 -1653 33 -67 c37 -76 82 -120 162 -157 73 -34 191 -36 262 -4 66 30
133 96 165 162 l28 56 0 3347 0 3348 -27 27 c-23 22 -38 28 -80 29 -29 1 -71
-4 -93 -10z m-20 -6683 c-16 -88 -143 -112 -192 -36 -17 26 -18 106 -19 1688
0 914 -4 1672 -7 1685 -3 14 -51 70 -106 125 -83 82 -100 104 -97 125 6 36 16
108 21 155 3 22 7 51 10 65 2 14 7 45 10 70 4 25 8 56 10 70 2 14 7 45 10 70
3 25 8 57 10 71 5 25 7 43 20 144 4 28 8 62 11 77 6 42 52 356 60 413 3 28 8
59 10 70 2 10 6 37 9 60 3 22 8 56 10 75 3 19 8 51 10 70 2 20 11 80 19 135 8
55 18 123 21 150 4 28 8 57 10 65 2 8 7 42 11 75 3 33 7 62 9 65 2 3 6 30 9
60 3 30 8 66 11 80 3 14 7 45 10 70 2 25 7 56 9 70 3 14 8 45 11 70 3 25 8 56
10 70 3 14 7 45 10 70 3 25 10 72 15 105 16 105 22 149 25 175 5 54 18 116 29
140 8 19 12 -794 14 -3170 1 -1757 0 -3209 -3 -3227z"/>
<path d="M3457 5904 c-1 -1 -36 -5 -77 -9 -41 -3 -82 -8 -90 -10 -8 -2 -37 -7
-65 -10 -63 -7 -236 -48 -335 -80 -368 -117 -713 -327 -980 -596 -97 -97 -141
-148 -243 -279 -81 -104 -219 -350 -281 -500 -91 -223 -157 -489 -173 -704
-37 -488 51 -925 272 -1344 60 -112 126 -214 219 -337 265 -351 668 -646 1086
-796 63 -22 122 -42 130 -45 8 -2 49 -12 90 -24 81 -22 83 -22 210 -44 209
-36 528 -41 716 -11 121 20 243 46 364 80 135 37 373 141 520 226 57 33 222
144 261 176 300 245 501 487 666 803 142 269 237 603 260 905 48 644 -151
1263 -561 1745 -315 369 -706 624 -1166 760 -57 17 -118 33 -135 36 -16 3 -48
9 -70 14 -22 5 -60 11 -85 15 -25 3 -52 8 -60 10 -42 12 -463 28 -473 19z
m373 -227 c19 -3 58 -8 85 -12 28 -3 70 -10 95 -15 25 -5 56 -12 70 -14 47 -8
175 -45 264 -76 300 -106 581 -286 816 -521 210 -211 372 -459 484 -739 45
-115 109 -344 122 -436 3 -27 8 -51 9 -54 7 -11 19 -200 19 -300 0 -105 -11
-307 -18 -319 -2 -3 -7 -28 -10 -56 -17 -123 -82 -343 -147 -495 -127 -298
-365 -620 -596 -806 -26 -22 -57 -47 -68 -57 -38 -35 -221 -154 -305 -200
-172 -93 -404 -180 -560 -211 -168 -33 -163 -32 -270 -42 -138 -14 -427 -8
-517 10 -11 3 -43 8 -70 11 -26 4 -97 20 -158 35 -397 103 -747 305 -1029 594
-123 127 -182 203 -324 421 -29 46 -142 286 -171 365 -32 90 -85 287 -95 355
-3 22 -8 51 -11 65 -25 120 -26 506 0 640 3 14 7 36 10 50 3 14 8 43 11 65 3
22 8 43 10 46 2 3 6 20 9 38 12 68 94 301 144 405 80 171 208 370 319 498 71
83 220 226 312 299 238 191 650 381 915 422 17 3 41 8 55 11 37 8 86 15 170
22 41 4 76 8 78 9 5 4 317 -3 352 -8z"/>
<path d="M3458 5135 c-2 -1 -25 -5 -53 -9 -439 -52 -850 -294 -1116 -656 -171
-233 -251 -432 -308 -770 -15 -84 -6 -390 13 -495 22 -117 85 -304 140 -419
242 -497 729 -847 1271 -914 112 -13 374 -7 485 12 211 36 454 134 633 254 41
28 81 57 88 64 8 7 28 24 44 36 17 13 63 56 104 95 209 204 357 458 435 747
37 136 47 215 51 385 10 444 -146 848 -453 1169 -315 328 -733 505 -1194 504
-75 0 -138 -1 -140 -3z m237 -219 c141 -6 324 -45 430 -91 112 -49 157 -71
210 -103 298 -180 516 -454 625 -783 52 -157 64 -245 64 -444 0 -194 -15 -289
-69 -450 -167 -497 -608 -868 -1130 -950 -133 -21 -383 -14 -507 14 -450 101
-815 394 -1002 804 -32 69 -79 205 -90 259 -3 13 -7 34 -10 48 -3 14 -9 45
-12 70 -3 24 -8 56 -10 70 -5 37 -5 251 0 280 3 14 7 48 11 75 13 107 66 283
117 387 223 463 660 769 1163 813 39 4 72 8 73 10 2 2 9 2 15 0 7 -2 62 -6
122 -9z"/>
<path d="M3394 2951 c-2 -2 -4 -52 -4 -111 l0 -106 108 0 107 1 3 108 c2 97 1
107 -15 108 -109 3 -195 3 -199 0z"/>
<path d="M3847 2952 c-15 -3 -17 -18 -17 -111 l0 -107 108 1 107 0 1 110 1
110 -92 0 c-50 0 -99 -1 -108 -3z"/>
<path d="M4269 2945 c-3 -28 -5 -191 -2 -200 3 -9 184 -14 213 -6 10 2 5 211
-5 212 -67 6 -205 2 -206 -6z"/>
</g>
</svg>
